<svg width="43" height="38" viewBox="0 0 43 38" fill="none" xmlns="http://www.w3.org/2000/svg">
<path d="M39.5642 16.4193C39.5642 11.0638 36.328 0.935425 24.0803 0.935425H18.919C6.67127 0.935425 3.43514 11.0638 3.43514 16.4193C2.00869 16.4193 0.854492 17.5735 0.854492 18.9999V29.3225C0.854492 30.749 2.00869 31.9032 3.43514 31.9032H6.01578V34.4838C6.01578 35.9103 7.16998 37.0645 8.59643 37.0645H11.1771C12.6035 37.0645 13.7577 35.9103 13.7577 34.4838V31.9032H29.2416V34.4838C29.2416 35.9103 30.3958 37.0645 31.8222 37.0645H34.4029C35.8293 37.0645 36.9835 35.9103 36.9835 34.4838V31.9032H39.5642C40.9906 31.9032 42.1448 30.749 42.1448 29.3225V18.9999C42.1448 17.5735 40.9906 16.4193 39.5642 16.4193ZM11.1771 26.7419C9.75062 26.7419 8.59643 25.5877 8.59643 24.1612C8.59643 22.7348 9.75062 21.5806 11.1771 21.5806C12.6035 21.5806 13.7577 22.7348 13.7577 24.1612C13.7577 25.5877 12.6035 26.7419 11.1771 26.7419ZM8.59643 16.4193C8.59643 15.9987 8.71514 6.09671 18.919 6.09671H24.0803C34.0222 6.09671 34.3926 15.3735 34.4029 16.4193H8.59643ZM31.8222 26.7419C30.3958 26.7419 29.2416 25.5877 29.2416 24.1612C29.2416 22.7348 30.3958 21.5806 31.8222 21.5806C33.2487 21.5806 34.4029 22.7348 34.4029 24.1612C34.4029 25.5877 33.2487 26.7419 31.8222 26.7419Z" fill="white"/>
</svg>
